<?xml version="1.0" encoding="UTF-8"?>
<!DOCTYPE svg PUBLIC "-//W3C//DTD SVG 1.1//EN" "http://www.w3.org/Graphics/SVG/1.1/DTD/svg11.dtd">
<!-- Creator: CorelDRAW X6 -->
<svg xmlns="http://www.w3.org/2000/svg" xml:space="preserve" width="0.333331in" height="0.333331in" version="1.1" style="shape-rendering:geometricPrecision; text-rendering:geometricPrecision; image-rendering:optimizeQuality; fill-rule:evenodd; clip-rule:evenodd"
viewBox="0 0 333 333"
 xmlns:xlink="http://www.w3.org/1999/xlink">
 <defs>
  <style type="text/css">
   <![CDATA[
    .fil0 {fill:#CECECE;fill-rule:nonzero}
   ]]>
  </style>
 </defs>
 <g id="Layer_x0020_1">
  <metadata id="CorelCorpID_0Corel-Layer"/>
  <path class="fil0" d="M53 167c0,-15 3,-29 9,-43 6,-14 14,-26 24,-35 10,-10 22,-18 35,-24 14,-6 28,-9 43,-9l0 -35 96 56 -96 55 0 -34c-19,0 -35,7 -49,20 -14,14 -20,30 -20,49 0,8 1,16 4,24l-36 21c-6,-14 -10,-29 -10,-45zm16 90l96 -55 0 34c19,0 35,-7 49,-20 14,-14 20,-30 20,-49 0,-8 -1,-16 -4,-24l36 -21c6,14 10,29 10,45 0,15 -3,29 -9,43 -6,14 -14,26 -24,35 -10,10 -22,18 -35,24 -14,6 -28,9 -43,9l0 35 -96 -56z"/>
 </g>
</svg>
