<?xml version="1.0" encoding="UTF-8"?>
<!DOCTYPE svg PUBLIC "-//W3C//DTD SVG 1.1//EN" "http://www.w3.org/Graphics/SVG/1.1/DTD/svg11.dtd">
<!-- Creator: CorelDRAW X6 -->
<svg xmlns="http://www.w3.org/2000/svg" xml:space="preserve" width="0.333331in" height="0.333331in" version="1.1" style="shape-rendering:geometricPrecision; text-rendering:geometricPrecision; image-rendering:optimizeQuality; fill-rule:evenodd; clip-rule:evenodd"
viewBox="0 0 333 333"
 xmlns:xlink="http://www.w3.org/1999/xlink">
 <defs>
  <style type="text/css">
   <![CDATA[
    .fil0 {fill:#ffffff;fill-rule:nonzero}
   ]]>
  </style>
 </defs>
 <g id="Layer_x0020_1">
  <metadata id="CorelCorpID_0Corel-Layer"/>
  <path class="fil0" d="M26 308l39 -118 109 -109 10 10 -107 107 -6 -6 0 0c-4,10 -8,21 -12,33 -4,12 -8,21 -10,27l-3 10c4,0 10,3 16,9 6,6 9,11 9,16 22,-7 45,-15 69,-23l0 0 -6 -6 107 -107 10 10 -109 109 -116 39zm65 -97l107 -107 10 10 -107 107 -10 -10zm23 23l107 -107 10 10 -107 107 -10 -10zm71 -163l10 -10 79 79 -10 10 -79 -79zm20 -20l10 -10c9,-8 18,-12 30,-12 11,0 21,4 29,12l20 20c8,8 12,18 12,29 0,11 -4,21 -12,30l-10 10 -79 -79z"/>
 </g>
</svg>
