<?xml version="1.0" encoding="UTF-8"?>
<!DOCTYPE svg PUBLIC "-//W3C//DTD SVG 1.1//EN" "http://www.w3.org/Graphics/SVG/1.1/DTD/svg11.dtd">
<!-- Creator: CorelDRAW X6 -->
<svg xmlns="http://www.w3.org/2000/svg" xml:space="preserve" width="0.333331in" height="0.333331in" version="1.1" style="shape-rendering:geometricPrecision; text-rendering:geometricPrecision; image-rendering:optimizeQuality; fill-rule:evenodd; clip-rule:evenodd"
viewBox="0 0 333 333"
 xmlns:xlink="http://www.w3.org/1999/xlink">
 <defs>
  <style type="text/css">
   <![CDATA[
    .fil0 {fill:#ffffff;fill-rule:nonzero}
   ]]>
  </style>
 </defs>
 <g id="Layer_x0020_1">
  <metadata id="CorelCorpID_0Corel-Layer"/>
  <path class="fil0" d="M25 242l0 -111c0,-8 3,-14 9,-20 6,-6 13,-8 21,-8l60 0 14 -28c2,-3 3,-6 4,-7 1,-2 2,-3 4,-5 2,-2 4,-2 6,-2l55 0c2,0 3,0 4,1 1,1 3,2 4,3 1,2 2,3 3,4 1,1 2,3 3,6l14 28 55 0c8,0 14,3 20,8 6,6 8,12 8,20l0 111c0,8 -3,14 -8,20 -6,5 -12,8 -20,8l-227 0c-8,0 -15,-3 -20,-8 -6,-5 -8,-12 -8,-20zm83 -62c0,17 6,32 18,44 12,12 27,18 44,18 17,0 32,-6 44,-18 12,-12 18,-27 18,-44 0,-17 -6,-32 -18,-45 -12,-12 -27,-18 -44,-18 -17,0 -32,6 -44,18 -12,12 -18,27 -18,45zm28 0c0,-10 3,-18 10,-25 7,-7 15,-10 25,-10 10,0 18,3 25,10 7,7 10,15 10,25 0,10 -3,18 -10,24 -7,7 -15,10 -25,10 -10,0 -18,-3 -25,-10 -7,-7 -10,-15 -10,-24zm122 -45c-3,3 -4,6 -4,10 0,4 1,7 4,10 3,3 6,4 10,4 4,0 7,-1 10,-4 3,-3 4,-6 4,-10 0,-4 -1,-7 -4,-10 -3,-3 -6,-4 -10,-4 -4,0 -7,1 -10,4z"/>
 </g>
</svg>
