<?xml version="1.0" encoding="UTF-8"?>
<!DOCTYPE svg PUBLIC "-//W3C//DTD SVG 1.1//EN" "http://www.w3.org/Graphics/SVG/1.1/DTD/svg11.dtd">
<!-- Creator: CorelDRAW X6 -->
<svg xmlns="http://www.w3.org/2000/svg" xml:space="preserve" width="0.333331in" height="0.333331in" version="1.1" style="shape-rendering:geometricPrecision; text-rendering:geometricPrecision; image-rendering:optimizeQuality; fill-rule:evenodd; clip-rule:evenodd"
viewBox="0 0 333 333"
 xmlns:xlink="http://www.w3.org/1999/xlink">
 <defs>
  <style type="text/css">
   <![CDATA[
    .fil0 {fill:#96989A;fill-rule:nonzero}
   ]]>
  </style>
 </defs>
 <g id="Layer_x0020_1">
  <metadata id="CorelCorpID_0Corel-Layer"/>
  <path class="fil0" d="M47 156c-3,-8 -5,-16 -5,-25 0,-8 2,-17 5,-25 3,-8 8,-15 14,-21 6,-6 13,-11 21,-14 8,-3 16,-5 25,-5 9,0 17,2 25,5 8,3 15,8 21,14 7,7 12,15 15,25 3,-9 8,-18 15,-25 6,-6 13,-11 21,-14 8,-3 16,-5 25,-5 8,0 17,2 25,5 8,3 15,8 21,14 6,6 11,13 14,21 3,8 5,16 5,25 0,9 -2,17 -5,25 -3,8 -8,15 -14,21 -16,16 -41,41 -77,77l-31 31 -108 -108c-6,-6 -11,-13 -14,-21zm6 -25c0,15 5,28 16,39l100 100c9,-10 23,-23 41,-41 18,-18 29,-28 33,-32l27 -27c11,-11 16,-23 16,-39 0,-15 -5,-28 -16,-38 -11,-11 -23,-16 -38,-16 -15,0 -28,5 -39,16 -5,5 -9,12 -12,20l-11 25 -10 -25c-3,-8 -7,-15 -13,-20 -11,-11 -23,-16 -39,-16 -15,0 -28,5 -38,16 -11,11 -16,23 -16,38z"/>
 </g>
</svg>
