<?xml version="1.0" encoding="UTF-8"?>
<!DOCTYPE svg PUBLIC "-//W3C//DTD SVG 1.1//EN" "http://www.w3.org/Graphics/SVG/1.1/DTD/svg11.dtd">
<!-- Creator: CorelDRAW X6 -->
<svg xmlns="http://www.w3.org/2000/svg" xml:space="preserve" width="0.333331in" height="0.333331in" version="1.1" style="shape-rendering:geometricPrecision; text-rendering:geometricPrecision; image-rendering:optimizeQuality; fill-rule:evenodd; clip-rule:evenodd"
viewBox="0 0 333 333"
 xmlns:xlink="http://www.w3.org/1999/xlink">
 <defs>
  <style type="text/css">
   <![CDATA[
    .fil0 {fill:#ffffff;fill-rule:nonzero}
   ]]>
  </style>
 </defs>
 <g id="Layer_x0020_1">
  <metadata id="CorelCorpID_0Corel-Layer"/>
  <path class="fil0" d="M28 264l0 -102c0,-1 1,-2 1,-3 1,-1 2,-1 3,-1l37 0 0 49c0,7 2,12 5,15 3,4 8,6 14,5 0,0 0,0 0,0 9,0 38,0 87,0l0 37c0,1 0,2 -1,3 -1,1 -2,1 -3,1l-88 0 -28 28 0 -28 -23 0c-1,0 -2,0 -3,-1 -1,-1 -1,-2 -1,-3zm56 -58l0 -153c0,-2 1,-4 2,-5 1,-1 3,-2 5,-2l208 0c2,0 4,1 5,2 1,1 2,3 2,5l0 153c0,2 -1,3 -2,5 -1,1 -3,2 -5,2l-35 0 0 42 -42 -42 -132 0c-2,0 -4,-1 -5,-2 -1,-1 -2,-3 -2,-5z"/>
 </g>
</svg>
