<?xml version="1.0" encoding="UTF-8"?>
<!DOCTYPE svg PUBLIC "-//W3C//DTD SVG 1.1//EN" "http://www.w3.org/Graphics/SVG/1.1/DTD/svg11.dtd">
<!-- Creator: CorelDRAW X6 -->
<svg xmlns="http://www.w3.org/2000/svg" xml:space="preserve" width="0.333331in" height="0.333331in" version="1.1" style="shape-rendering:geometricPrecision; text-rendering:geometricPrecision; image-rendering:optimizeQuality; fill-rule:evenodd; clip-rule:evenodd"
viewBox="0 0 333 333"
 xmlns:xlink="http://www.w3.org/1999/xlink">
 <defs>
  <style type="text/css">
   <![CDATA[
    .fil0 {fill:#ffffff;fill-rule:nonzero}
   ]]>
  </style>
 </defs>
 <g id="Layer_x0020_1">
  <metadata id="CorelCorpID_0Corel-Layer"/>
  <path class="fil0" d="M26 281c0,-8 3,-14 8,-20l75 -75c-9,-16 -14,-33 -14,-51 0,-19 5,-36 14,-52 9,-16 22,-29 38,-38 16,-9 33,-14 52,-14 19,0 36,5 52,14 16,9 29,22 38,38 9,16 14,33 14,52 0,19 -5,36 -14,52 -9,16 -22,29 -38,38 -16,9 -34,14 -52,14 -18,0 -35,-5 -51,-14l-75 75c-6,5 -12,8 -20,8 -8,0 -14,-3 -20,-8 -6,-6 -8,-12 -8,-20zm98 -146c0,14 3,26 10,38 7,12 16,21 28,28 12,7 24,10 38,10 14,0 27,-3 38,-10 12,-7 21,-16 28,-28 7,-12 10,-24 10,-38 0,-14 -3,-27 -10,-38 -7,-12 -16,-21 -28,-28 -12,-7 -25,-10 -38,-10 -14,0 -26,3 -38,10 -12,7 -21,16 -28,28 -7,12 -10,25 -10,38z"/>
 </g>
</svg>
