<?xml version="1.0" encoding="UTF-8"?>
<!DOCTYPE svg PUBLIC "-//W3C//DTD SVG 1.1//EN" "http://www.w3.org/Graphics/SVG/1.1/DTD/svg11.dtd">
<!-- Creator: CorelDRAW X6 -->
<svg xmlns="http://www.w3.org/2000/svg" xml:space="preserve" width="1.33333in" height="1in" version="1.1" style="shape-rendering:geometricPrecision; text-rendering:geometricPrecision; image-rendering:optimizeQuality; fill-rule:evenodd; clip-rule:evenodd"
viewBox="0 0 1333 1000"
 xmlns:xlink="http://www.w3.org/1999/xlink">
 <defs>
  <style type="text/css">
   <![CDATA[
    .fil0 {fill:#D2D3D5;fill-rule:nonzero}
   ]]>
  </style>
 </defs>
 <g id="Layer_x0020_1">
  <metadata id="CorelCorpID_0Corel-Layer"/>
  <path class="fil0" d="M284 679l0 -231c0,-16 6,-30 19,-41 12,-11 27,-17 44,-17l125 0 29 -58c4,-7 6,-12 8,-15 2,-3 5,-6 8,-9 4,-3 8,-5 12,-5l115 0c3,0 6,1 9,2 3,1 5,4 8,7 3,3 5,6 6,9 2,3 3,7 6,12l29 58 115 0c16,0 29,6 41,17 11,11 17,25 17,41l0 231c0,16 -6,29 -17,41 -12,11 -26,17 -42,17l-472 0c-16,0 -30,-6 -42,-17 -12,-11 -17,-25 -17,-41zm173 -129c0,35 13,66 38,91 25,25 56,38 92,38 36,0 66,-13 91,-38 25,-25 38,-55 38,-91 0,-36 -12,-67 -37,-93 -25,-25 -55,-38 -92,-38 -36,0 -67,13 -92,38 -25,26 -38,56 -38,93zm58 0c0,-20 7,-37 21,-51 14,-14 31,-21 51,-21 20,0 37,7 51,21 14,14 21,31 21,51 0,20 -7,37 -21,51 -14,14 -31,21 -51,21 -20,0 -37,-7 -51,-21 -14,-14 -21,-31 -21,-51zm253 -93c-6,6 -9,13 -9,21 0,8 3,15 9,20 6,6 12,9 20,9 8,0 14,-3 20,-9 5,-6 8,-12 8,-20 0,-8 -3,-15 -8,-21 -5,-6 -12,-8 -20,-8 -8,0 -15,3 -20,8z"/>
  <polygon class="fil0" points="896,473 896,365 787,365 787,290 896,290 896,182 968,182 968,290 1077,290 1077,365 968,365 968,473 "/>
 </g>
</svg>
