<?xml version="1.0" encoding="UTF-8"?>
<!DOCTYPE svg PUBLIC "-//W3C//DTD SVG 1.1//EN" "http://www.w3.org/Graphics/SVG/1.1/DTD/svg11.dtd">
<!-- Creator: CorelDRAW X6 -->
<svg xmlns="http://www.w3.org/2000/svg" xml:space="preserve" width="0.333331in" height="0.333331in" version="1.1" style="shape-rendering:geometricPrecision; text-rendering:geometricPrecision; image-rendering:optimizeQuality; fill-rule:evenodd; clip-rule:evenodd"
viewBox="0 0 333 333"
 xmlns:xlink="http://www.w3.org/1999/xlink">
 <defs>
  <style type="text/css">
   <![CDATA[
    .fil0 {fill:#ffffff;fill-rule:nonzero}
   ]]>
  </style>
 </defs>
 <g id="Layer_x0020_1">
  <metadata id="CorelCorpID_0Corel-Layer"/>
  <path class="fil0" d="M30 246l0 -139c6,5 25,18 55,41 30,23 53,40 69,52 4,3 9,5 15,5 6,0 11,-2 15,-5 16,-12 39,-29 69,-52 30,-22 48,-36 55,-41l0 139 -70 -56 65 65c-3,3 -6,4 -10,4l-250 0c-4,0 -7,-1 -10,-4l65 -65 -70 56zm0 -153c0,-4 1,-7 4,-10 3,-3 6,-4 10,-4l250 0c4,0 7,1 10,4 3,3 4,6 4,10 -6,5 -25,18 -55,41 -30,23 -53,40 -69,52 -4,3 -9,4 -15,4 -6,0 -11,-1 -15,-4 -16,-12 -39,-29 -69,-52 -30,-22 -48,-36 -55,-41z"/>
 </g>
</svg>
